<svg version="1.2" xmlns="http://www.w3.org/2000/svg" viewBox="0 0 515 516" width="515" height="516">
	<title>New Project</title>
	<defs>
		<linearGradient id="g1" x2="1" gradientUnits="userSpaceOnUse" gradientTransform="matrix(366.383,0,0,403.482,58.443,93.224)">
			<stop offset=".081" stop-color="#001b26"/>
			<stop offset=".498" stop-color="#000000"/>
			<stop offset=".501" stop-color="#02445a"/>
			<stop offset="1" stop-color="#001923"/>
		</linearGradient>
		<linearGradient id="g2" x2="1" gradientUnits="userSpaceOnUse" gradientTransform="matrix(0,258.886,-235.082,0,463.803,164.581)">
			<stop offset="0" stop-color="#ffffff"/>
			<stop offset="1" stop-color="#054960"/>
		</linearGradient>
	</defs>
	<style>
		.s0 { fill: #1f1f1f } 
		.s1 { mix-blend-mode: screen;fill: url(#g1) } 
		.s2 { mix-blend-mode: multiply;fill: url(#g2) } 
		.s3 { fill: #5e5e5e } 
		.s4 { fill: #d6d6d6 } 
		.s5 { fill: #000b11 } 
		.s6 { fill: #00dfff } 
		.s7 { fill: #e4e6e7 } 
		.s8 { fill: #00c7e9 } 
	</style>
	<path id="&lt;Path&gt;" class="s0" d="m241.6 93.2c0 0 28.7 32.6 80.2 43.5 67.2 14.2 102.5-24 102.5-24 0 0 5.3 68.5-18.3 169.4-26.5 113.2-90.3 167.2-164.4 214.6-74-47.4-137.8-101.4-164.3-214.6-23.6-100.9-18.4-169.4-18.4-169.4 0 0 35.4 38.2 102.6 24 51.4-10.9 80.1-43.5 80.1-43.5z"/>
	<path id="&lt;Path&gt;" class="s1" d="m241.6 93.2c0 0 28.7 32.6 80.2 43.5 67.2 14.2 102.5-24 102.5-24 0 0 5.3 68.5-18.3 169.4-26.5 113.2-90.3 167.2-164.4 214.6-74-47.4-137.8-101.4-164.3-214.6-23.6-100.9-18.4-169.4-18.4-169.4 0 0 35.4 38.2 102.6 24 51.4-10.9 80.1-43.5 80.1-43.5z"/>
	<path id="&lt;Path&gt;" class="s2" d="m241.6 97.4c0 0 28.7 32.6 80.2 43.5 67.2 14.3 102.5-24 102.5-24 0 0 5.3 68.5-18.3 169.4-26.5 113.2-90.3 167.2-164.4 214.6-74-47.4-137.8-101.4-164.3-214.6-23.6-100.9-18.4-169.4-18.4-169.4 0 0 35.4 38.3 102.6 24 51.4-10.9 80.1-43.5 80.1-43.5z"/>
	<path id="&lt;Compound Path&gt;" fill-rule="evenodd" class="s3" d="m321.8 136.7c10.5 2.2 20.3 3.2 29.3 3.2 48.1 0 73.2-27.2 73.2-27.2 0 0 5.3 68.5-18.3 169.4-26.5 113.2-90.3 167.2-164.4 214.6-74-47.4-137.8-101.4-164.3-214.6-23.6-100.9-18.4-169.4-18.4-169.4 0 0 25.1 27.2 73.3 27.2 9 0 18.7-1 29.3-3.2 51.4-10.9 80.1-43.5 80.1-43.5 0 0 28.7 32.6 80.2 43.5zm-156.7 16.9c-11.2 2.4-22.2 3.6-32.9 3.6-23.4 0-42.2-5.7-56.2-12.3 0.8 28.7 4.6 75.7 18.1 133.3 22.8 97.3 73.4 149 147.5 197.9 74.2-48.9 124.8-100.6 147.6-197.9 13.4-57.6 17.2-104.6 18.1-133.3-14 6.6-32.8 12.3-56.2 12.3-10.7 0-21.8-1.2-32.9-3.6-36.1-7.6-62.2-25-76.6-36.8-14.4 11.8-40.4 29.2-76.5 36.8z"/>
	<path id="&lt;Compound Path&gt;" fill-rule="evenodd" class="s4" d="m241.6 505.5l-4-2.6c-66.1-42.4-139.1-97.8-167.5-219.1-23.6-100.8-18.8-168.8-18.5-171.7l1.3-16.9 11.5 12.5c1.3 1.4 33.6 34.9 95.6 21.8 48.2-10.3 75.8-40.9 76.1-41.2l5.5-6.2 5.6 6.2c0.3 0.3 27.9 30.9 76.1 41.2 62.4 13.2 95.3-21.5 95.6-21.8l11.5-12.5 1.3 16.9c0.2 2.9 5.1 70.9-18.5 171.7-28.4 121.3-101.4 176.7-167.6 219.1zm-175.7-377.5c-0.2 25.1 1.8 80.7 18.6 152.5 24.1 102.8 78 156.1 157.1 207.4 79.2-51.3 133.1-104.6 157.2-207.4 16.8-71.8 18.8-127.4 18.6-152.5-16.5 11.1-49.1 26.1-97.2 16-40.6-8.6-67.6-30-78.6-40.3-11 10.3-37.9 31.7-78.6 40.3-48 10.2-80.6-4.9-97.1-16z"/>
	<path id="&lt;Compound Path&gt;" fill-rule="evenodd" class="s5" d="m241.6 502.6l-2.6-1.7c-65.8-42.2-138.3-97.3-166.5-217.7-23.5-100.4-18.5-170.2-18.5-170.9l0.9-11.3 7.7 8.4c1.3 1.4 34.4 35.9 97.9 22.5 49.1-10.4 77.2-41.6 77.4-41.9l3.7-4.2 3.7 4.2c0.5 0.5 28.6 31.5 77.5 41.9 63.5 13.4 96.5-21.1 97.9-22.5l7.7-8.3 0.8 11.2c0.1 0.7 5.1 70.5-18.4 170.9-28.2 120.4-100.7 175.5-166.5 217.7zm-178.2-379.4c-0.4 22.5 0.7 80.9 18.7 157.8 24.4 104.2 79.1 157.9 159.5 209.8 80.4-51.9 135.1-105.6 159.5-209.8 18-76.9 19.1-135.3 18.7-157.8-14.5 10.9-47.8 29.2-99.1 18.3-42.4-9-69.6-32-79.1-41.2-9.5 9.2-36.7 32.2-79.1 41.2-51.3 10.9-84.6-7.4-99.1-18.3z"/>
	<path id="&lt;Path&gt;" class="s6" d="m153 248.5c-5-7.6-4.9-17.5 0.2-25q0.2-0.3 0.4-0.6l0.1-0.1q0.2-0.3 0.3-0.5 0.6-0.8 1.3-1.6 0.3-0.4 0.7-0.8c0.3-0.4 0.7-0.8 1.1-1.2q0.5-0.6 1.1-1.1 0.4-0.3 0.8-0.7 0.8-0.6 1.7-1.2 0.2-0.2 0.4-0.4 0.1 0 0.1 0 0.9-0.6 1.8-1.1 0.3-0.2 0.6-0.3c0.5-0.3 1-0.5 1.5-0.8q0.5-0.2 1-0.4c0.2-0.1 0.3-0.1 0.5-0.2 2.9-1.1 5.8-1.6 8.8-1.8 0.3 0 0.6 0 1 0q0.2 0 0.5 0c3.2 0.1 6.4 0.7 9.5 1.9q0.1 0.1 0.2 0.1c0.4 0.1 0.8 0.3 1.1 0.5q0.7 0.3 1.4 0.7 0.3 0.1 0.6 0.3 0.9 0.5 1.8 1.1 0.1 0 0.1 0c0.2 0.2 0.3 0.3 0.5 0.4q0.8 0.6 1.6 1.2c0.3 0.2 0.5 0.5 0.8 0.8q0.6 0.5 1.1 1 0.6 0.6 1.1 1.2 0.4 0.4 0.7 0.8 0.7 0.8 1.3 1.6 0.2 0.2 0.3 0.5l0.1 0.1q0.1 0.1 0.2 0.2l4.6 6.9 7.3 10.9q0.1 0 0.1 0.1l0.2 0.2 0.4 0.7q0.3 0.4 0.6 1l28.5 42.2 1.9-2.9 10.9-16.2q0.1-0.2 0.2-0.4l170-252.2c1.8-2.7 5.6-3.2 8.1-1.1 2.2 1.8 2.4 5.1 0.8 7.5l-23.4 34.8q0 0 0.1 0l-40 59.4c-1.7 2.5-1 5.9 1.5 7.5 0.9 0.7 2 1 3 1 1.8 0 3.5-0.9 4.6-2.4l42.7-63.5 0.4-0.7c1.6-2.4 4.8-3.4 7.3-2.1 2.9 1.6 3.8 5.2 2 7.9l-0.7 1q0.1 0 0.1 0l-26.2 38.8c-1.7 2.5-1 5.9 1.5 7.6 0.9 0.6 2 0.9 3 0.9 1.8 0 3.5-0.8 4.6-2.4l23.3-34.7q0.1 0 0.1 0l16.4-24.4c1.7-2.5 5.1-3.2 7.6-1.5 2.5 1.7 3.1 5.1 1.5 7.6l-170.1 252.2q-0.2 0.3-0.4 0.6l-3 4.4q0 0 0 0.1l-7.6 11.3-1.9 2.8q-0.1 0.1-0.1 0.1l-15.3 22.8q-0.1 0.1-0.2 0.2l-0.1 0.2q-0.6 0.8-1.2 1.6-0.2 0.3-0.5 0.6-0.6 0.7-1.3 1.4-0.1 0.2-0.2 0.3-0.9 0.9-1.8 1.7-0.2 0.1-0.3 0.2-1 0.8-2.1 1.6 0 0 0 0 0 0 0 0-0.8 0.5-1.6 1-0.2 0.1-0.4 0.2-0.6 0.4-1.3 0.7-0.3 0.1-0.5 0.2-0.6 0.3-1.2 0.5-0.3 0.2-0.6 0.3-0.8 0.3-1.6 0.5-0.5 0.2-1 0.3-0.4 0.1-0.7 0.2-0.6 0.1-1.1 0.2-0.3 0.1-0.7 0.1-0.5 0.1-1 0.2-0.5 0-0.9 0.1-0.4 0-0.9 0.1-0.7 0-1.5 0-0.1 0-0.2 0 0 0 0 0 0 0-0.1 0-0.1 0-0.2 0-0.8 0-1.5 0-0.5-0.1-0.9-0.1-0.4-0.1-0.8-0.1-0.6-0.1-1.1-0.2-0.3 0-0.7-0.1-0.5-0.1-1-0.2-0.4-0.1-0.7-0.2-0.6-0.1-1.1-0.3-0.8-0.2-1.6-0.5-0.3-0.1-0.6-0.3-0.6-0.2-1.1-0.5-0.3-0.1-0.6-0.2-0.6-0.3-1.3-0.7-0.2-0.1-0.3-0.2-0.9-0.5-1.6-1 0 0-0.1 0 0 0 0 0-1.1-0.8-2.1-1.6-0.1-0.1-0.2-0.2-1-0.8-1.9-1.7-0.1-0.1-0.2-0.3-0.7-0.7-1.3-1.4-0.3-0.3-0.5-0.6-0.6-0.8-1.2-1.6l-0.1-0.2q-0.1-0.1-0.1-0.2z"/>
	<path id="&lt;Path&gt;" class="s7" d="m453.8 28c0 0.9-0.3 2-0.9 2.8l-6.2 9.2c-0.6 0.9-1.4 1.5-2.3 1.9q-1.1 0.5-2.2 0.5c-1.1 0-2.1-0.3-3.1-0.9-2.5-1.7-3.1-5.1-1.4-7.6l6.1-9.2c1.7-2.5 5.1-3.1 7.6-1.4 1.6 1 2.4 2.8 2.4 4.7z"/>
	<path id="&lt;Path&gt;" class="s8" d="m437.7 33.9l6.1-9.2c1.7-2.5 5.1-3.1 7.6-1.4 1.6 1 2.4 2.8 2.4 4.7 0 0.9-0.3 2-0.9 2.8l-6.2 9.2c-0.6 0.9-1.4 1.5-2.3 1.9q-1.1 0.5-2.2 0.5c-1.1 0-2.1-0.3-3.1-0.9-2.5-1.7-3.1-5.1-1.4-7.6z"/>
	<path id="&lt;Path&gt;" class="s8" d="m460.8 47c-2.5-1.7-5.9-1-7.6 1.5l-16.4 24.4q0 0-0.1 0l-23.3 34.7c-1.1 1.6-2.8 2.4-4.6 2.4-1 0-2.1-0.3-3-0.9-2.5-1.7-3.2-5.1-1.5-7.6l26.2-38.8q0 0-0.1 0l0.7-1c1.7-2.5 1-5.9-1.5-7.6-2.5-1.7-5.9-1-7.6 1.5l-0.6 1-42.7 63.5c-1.1 1.5-2.8 2.4-4.6 2.4-1 0-2.1-0.3-3-1-2.5-1.6-3.2-5-1.5-7.5l40-59.4q-0.1 0-0.1 0l23.6-35.1c1.7-2.5 1-5.9-1.5-7.6-2.5-1.6-5.9-1-7.6 1.5l-170 252.2q-0.1 0.2-0.2 0.4l-10.9 16.2-1.9 2.9-28.5-42.2q-0.3-0.6-0.6-1-0.3-0.4-0.4-0.7l-0.2-0.2q0-0.1-0.1-0.1 0 0 0 0l-7.3-10.9-4.6-6.9q-0.1-0.1-0.2-0.2l-0.1-0.1q-0.1-0.3-0.3-0.5-0.6-0.8-1.3-1.6-0.3-0.4-0.7-0.8-0.5-0.6-1.1-1.2-0.5-0.5-1.1-1c-0.3-0.3-0.5-0.6-0.8-0.8q-0.8-0.6-1.6-1.2c-0.2-0.1-0.3-0.2-0.5-0.4q0 0-0.1 0-0.9-0.6-1.8-1.1-0.3-0.2-0.6-0.3-0.7-0.4-1.4-0.7c-0.3-0.2-0.7-0.4-1.1-0.5q-0.1 0-0.2-0.1c-3.1-1.2-6.3-1.8-9.5-1.9q-0.3 0-0.5 0c-0.4 0-0.7 0-1 0-3 0.2-5.9 0.7-8.8 1.8-0.2 0.1-0.3 0.1-0.5 0.2q-0.5 0.2-1 0.4c-0.5 0.3-1 0.5-1.5 0.8q-0.3 0.1-0.6 0.3-0.9 0.5-1.8 1.1 0 0-0.1 0-0.2 0.2-0.4 0.4-0.9 0.6-1.7 1.2-0.4 0.4-0.8 0.7-0.6 0.5-1.1 1.1c-0.4 0.4-0.8 0.8-1.1 1.2q-0.4 0.4-0.7 0.8-0.7 0.8-1.3 1.6-0.1 0.2-0.3 0.5l-0.1 0.1q-0.2 0.3-0.4 0.6l-1.8 3.1c0.7-0.6 14.7-9 37.7 28.2q2.3 3.6 4.5 6.9 1.1 1.7 2.1 3.3c12.9 19.9 19.9 30.8 23.5 36.4l0.4 0.6c0.9 1.3 1.5 2.3 2 3l1 1.5q0.1 0.1 0.1 0.1l12 17.8q0 0.1 0.1 0.1l0.1 0.2q0.2 0.3 0.3 0.5 0.6 0.8 1.3 1.6 0.3 0.4 0.7 0.8 0.5 0.6 1.1 1.2 0.5 0.5 1.1 1c0.3 0.3 0.5 0.5 0.8 0.8q0.8 0.6 1.6 1.2c0.2 0.1 0.3 0.2 0.5 0.4q0 0 0.1 0 0.9 0.6 1.8 1.1 0.3 0.1 0.6 0.3 0.7 0.4 1.4 0.7c0.4 0.2 0.7 0.3 1.1 0.5q0.1 0 0.2 0.1c3.1 1.2 6.3 1.8 9.5 1.9q0.3 0 0.5 0c0.4 0 0.7 0 1-0.1 3-0.1 5.9-0.6 8.8-1.7 0.2-0.1 0.3-0.1 0.5-0.2q0.5-0.2 1-0.5c0.5-0.2 1-0.4 1.5-0.7q0.3-0.1 0.6-0.3 0.9-0.5 1.8-1.1 0 0 0.1 0 0.2-0.2 0.4-0.4 0.9-0.6 1.7-1.2 0.4-0.4 0.8-0.7 0.6-0.5 1.1-1.1c0.4-0.4 0.8-0.8 1.1-1.2q0.4-0.4 0.7-0.8 0.3-0.3 0.6-0.7 0 0 0.1-0.1 0.3-0.4 0.6-0.8 0.1-0.2 0.3-0.5l0.1-0.1q0.2-0.3 0.4-0.6l0.6-0.8 7.8-11.6q-0.1 0-0.3 0.2l3-4.4q0.2-0.3 0.4-0.6l170.1-252.2c1.6-2.5 1-5.9-1.5-7.6z"/>
</svg>